# xmcd CD database file
#
# Track frame offsets:
#	150
#	18279
#	68777
#	106132
#	130272
#	161219
#	185516
#
# Disc length: 2844 seconds
#
# Revision: 5
# Processed by: cddbd v1.5.2PL0 Copyright (c) Steve Scherf et al.
# Submitted via: CDex 1.51
#
DISCID=580b1a07
DTITLE=WEATHER REPORT - Domino Theory
DYEAR=1984
DGENRE=Jazz
TTITLE0=Can It Be Done
TTITLE1=D?(D Flat) Waltz
TTITLE2=The Peasant
TTITLE3=Predator
TTITLE4=Blue Sound - Note 3
TTITLE5=Swamp Cabbage
TTITLE6=Domino Theory
EXTD=YEAR: 1984
EXTT0=
EXTT1=
EXTT2=
EXTT3=
EXTT4=
EXTT5=
EXTT6=
PLAYORDER=
